<svg width="80" height="80" viewBox="0 0 80 80" fill="none" xmlns="http://www.w3.org/2000/svg">
<circle cx="40" cy="40" r="40" fill="black"/>
<path d="M37.2594 35.587C37.0191 34.833 36.696 34.1577 36.29 33.5611C35.8922 32.9562 35.4158 32.4425 34.8606 32.0199C34.3055 31.589 33.6716 31.2617 32.959 31.038C32.2547 30.8143 31.4799 30.7024 30.6348 30.7024C29.2013 30.7024 27.9087 31.0711 26.7569 31.8086C25.6052 32.546 24.6937 33.6274 24.0225 35.0526C23.3597 36.4695 23.0282 38.2054 23.0282 40.2603C23.0282 42.3235 23.3638 44.0677 24.035 45.4929C24.7061 46.9181 25.6259 47.9994 26.7942 48.7369C27.9625 49.4743 29.2924 49.843 30.7839 49.843C32.1677 49.843 33.3733 49.5613 34.4007 48.9979C35.4365 48.4344 36.2361 47.639 36.7995 46.6115C37.3713 45.5758 37.6571 44.3577 37.6571 42.9574L38.6515 43.1438H31.3681V39.9744H41.3734V42.8704C41.3734 45.0082 40.9177 46.8642 40.0062 48.4386C39.103 50.0046 37.8519 51.2144 36.2527 52.0678C34.6618 52.9213 32.8388 53.348 30.7839 53.348C28.4804 53.348 26.4586 52.8177 24.7186 51.7571C22.9868 50.6965 21.6362 49.1926 20.6667 47.2454C19.6973 45.2899 19.2125 42.9698 19.2125 40.2852C19.2125 38.2551 19.4943 36.4322 20.0577 34.8164C20.6212 33.2006 21.4125 31.8293 22.4316 30.7024C23.4591 29.5672 24.6647 28.7013 26.0485 28.1048C27.4405 27.4999 28.961 27.1974 30.6099 27.1974C31.9854 27.1974 33.2656 27.4004 34.4505 27.8065C35.6436 28.2125 36.7042 28.7884 37.6323 29.5341C38.5686 30.2798 39.3433 31.1664 39.9565 32.1939C40.5697 33.2131 40.984 34.3441 41.1994 35.587H37.2594ZM56.1421 27.5455H59.9703V45.5923C59.9703 47.2247 59.6471 48.6209 59.0008 49.7809C58.3628 50.9409 57.4637 51.8275 56.3037 52.4407C55.1437 53.0456 53.7848 53.348 52.227 53.348C50.7935 53.348 49.5051 53.087 48.3616 52.565C47.2264 52.043 46.3274 51.2848 45.6645 50.2905C45.0099 49.2879 44.6826 48.0698 44.6826 46.6364H48.4983C48.4983 47.3407 48.6599 47.9497 48.983 48.4634C49.3145 48.9772 49.7661 49.379 50.3378 49.669C50.9178 49.9508 51.5807 50.0916 52.3264 50.0916C53.1385 50.0916 53.8262 49.9218 54.3896 49.582C54.9614 49.234 55.3964 48.7244 55.6947 48.0533C55.993 47.3821 56.1421 46.5618 56.1421 45.5923V27.5455Z" fill="white"/>
</svg>
